<?xml version="1.0" standalone="no"?>
<!DOCTYPE svg PUBLIC "-//W3C//DTD SVG 20010904//EN"
 "http://www.w3.org/TR/2001/REC-SVG-20010904/DTD/svg10.dtd">
<svg version="1.0" xmlns="http://www.w3.org/2000/svg"
 width="800.000000pt" height="800.000000pt" viewBox="0 0 800.000000 800.000000"
 preserveAspectRatio="xMidYMid meet">

<g transform="translate(0.000000,800.000000) scale(0.100000,-0.100000)"
fill="#000000" stroke="none">
<path d="M2847 7043 c-3 -4 -58 -145 -122 -313 -64 -168 -269 -701 -455 -1185
-186 -484 -409 -1064 -495 -1290 -86 -225 -167 -437 -180 -470 -13 -33 -136
-352 -273 -710 -137 -357 -376 -979 -531 -1382 -154 -402 -281 -734 -281 -737
0 -3 213 -6 473 -6 l473 0 188 517 c103 285 251 695 329 910 l142 393 368 0
367 0 0 -910 0 -910 1705 0 c938 0 1705 3 1705 6 0 3 -10 28 -21 55 -12 27
-20 51 -18 53 2 1 60 22 129 45 260 90 455 206 620 371 203 201 364 490 441
787 84 328 78 688 -17 980 -132 405 -440 732 -856 909 -55 23 -99 44 -99 48 1
3 38 32 83 62 112 76 208 155 270 223 469 513 514 1239 113 1841 -228 343
-573 560 -1041 655 -290 59 -254 58 -1691 62 -726 2 -1323 0 -1326 -4z m872
-110 c9 -17 112 -269 461 -1128 89 -220 197 -485 240 -590 214 -526 269 -661
272 -673 2 -10 -66 -13 -341 -13 -190 0 -348 4 -351 8 -8 8 -348 911 -423
1123 -52 146 -162 480 -207 628 l-32 103 -46 -3 -46 -3 -12 -50 c-6 -27 -29
-122 -49 -210 -95 -405 -179 -664 -460 -1405 -114 -300 -228 -603 -255 -675
-27 -71 -90 -237 -139 -369 -50 -131 -91 -243 -91 -247 0 -5 137 -9 305 -9
l305 0 0 -275 0 -275 -402 0 -403 0 -157 -433 c-86 -238 -234 -647 -330 -910
l-173 -477 -362 0 c-244 0 -363 3 -363 10 0 9 165 442 560 1470 116 303 1063
2766 1225 3190 357 930 467 1215 471 1222 3 4 183 8 399 8 365 0 395 -1 404
-17z m1883 -6 c461 -62 734 -169 988 -388 327 -281 528 -781 482 -1199 -54
-486 -322 -857 -795 -1100 -59 -30 -107 -57 -107 -60 0 -4 35 -16 78 -29 349
-101 613 -262 801 -487 228 -274 333 -602 318 -994 -14 -357 -117 -659 -326
-955 -123 -174 -313 -331 -521 -429 -116 -54 -331 -129 -341 -119 -4 5 -46
105 -94 223 -48 118 -98 241 -111 272 -13 32 -24 61 -24 66 0 5 21 17 48 27
221 83 375 206 491 390 102 162 150 327 158 546 14 349 -106 638 -352 846
-168 142 -380 216 -735 260 -128 15 -248 17 -1030 18 l-885 0 -3 -1077 -2
-1078 671 -2 672 -3 38 -100 c20 -55 72 -190 113 -299 42 -109 76 -201 76
-202 0 -2 -508 -4 -1130 -4 l-1130 0 0 1990 0 1990 51 137 c99 269 197 584
260 842 17 69 33 133 35 141 3 8 42 -98 88 -235 89 -267 207 -597 235 -655 14
-30 17 -91 21 -435 l5 -400 810 1 c847 0 992 6 1187 45 247 49 451 162 574
317 62 78 129 218 156 327 19 76 22 116 22 260 -1 151 -4 181 -27 270 -32 120
-97 257 -162 344 -101 133 -270 239 -457 286 -205 51 -311 58 -1021 64 l-658
6 -120 293 c-65 161 -119 297 -119 303 0 7 252 9 828 6 677 -4 848 -7 944 -20z
m-264 -697 c184 -13 369 -44 464 -76 241 -82 403 -273 475 -562 26 -103 23
-361 -5 -466 -48 -175 -141 -311 -276 -405 -210 -145 -424 -188 -949 -192
-131 -1 -239 0 -241 2 -1 2 -28 67 -59 144 -30 77 -112 277 -180 445 -163 401
-299 735 -386 948 l-70 172 540 0 c297 0 606 -5 687 -10z m-1516 -1517 c37
-98 63 -180 59 -183 -5 -3 -39 -3 -75 -2 l-65 4 0 179 c1 98 4 179 7 179 4 0
37 -80 74 -177z m-972 -578 l0 -615 -236 0 c-221 0 -236 1 -229 18 14 36 201
531 327 865 72 191 133 347 134 347 2 0 4 -277 4 -615z m1377 -497 c17 -46 34
-91 38 -100 7 -17 -9 -18 -253 -18 -297 0 -272 -9 -272 100 0 108 -20 100 234
100 l222 0 31 -82z m881 -115 c45 -109 142 -349 217 -533 75 -184 185 -454
244 -600 337 -826 541 -1329 541 -1335 0 -3 -178 -4 -396 -3 l-395 3 -168 440
c-92 242 -227 598 -300 790 -73 193 -153 403 -178 467 l-46 118 -441 2 -441 3
0 270 0 270 333 3 c182 1 332 6 332 11 0 5 -22 68 -50 141 -27 73 -50 136 -50
141 0 5 155 9 359 9 l358 0 81 -197z m452 171 c244 -27 428 -79 570 -161 91
-53 233 -198 292 -298 94 -159 135 -344 125 -560 -18 -390 -227 -691 -570
-820 -63 -23 -67 -24 -76 -7 -11 20 -667 1629 -759 1861 -4 11 19 12 139 7 79
-4 205 -14 279 -22z m-995 -941 c7 -18 106 -280 284 -748 50 -131 91 -240 91
-242 0 -2 -270 -3 -600 -3 l-601 0 1 499 c1 274 4 502 7 505 4 3 187 6 409 6
373 0 402 -1 409 -17z"/>
</g>
</svg>
