<?xml version="1.0" standalone="yes"?>
<svg xmlns="http://www.w3.org/2000/svg" width="2467" height="1852">
<path style="fill:#ffffff; stroke:none;" d="M0 0L0 1852L2467 1852L2467 0L0 0z"/>
<path style="fill:#d12b25; stroke:none;" d="M790 683L957 683L1007 683C1013.54 683 1022.82 684.676 1029 682.397C1034.47 680.379 1038.98 674.021 1043 670C1051.46 661.544 1060.25 653.245 1069 645.089C1099.39 616.782 1130.87 589.755 1163 563.424C1252.26 490.268 1350.36 428.005 1451 371.86C1657.2 256.827 1882.08 175.043 2110 115.116C2181.4 96.3419 2253.43 79.9863 2326 66.3889C2365.16 59.0513 2405.24 50.1384 2445 47C2436.64 43.493 2423.06 46 2414 46C2388.58 46 2363.34 47.3645 2338 47.9854C2239.44 50.3995 2140.83 60.8547 2043 73.7184C1693.67 119.652 1331.1 221.859 1044 433.116C973.996 484.627 908.74 542.151 850.834 607C836.295 623.282 822.225 639.942 808.6 657C802.263 664.934 793.669 673.461 790 683z"/>
<path style="fill:#095fa5; stroke:none;" d="M378 1050L311 1050L311 1186L376 1186L376 1154C385.566 1164.95 394.858 1174.99 408 1181.74C451.765 1204.23 520.337 1195.46 554.911 1159.96C588.172 1125.81 596.012 1065.44 577.988 1022C557.241 971.996 499.692 960.113 454 942.808C430.736 933.997 400.465 925.435 393.899 898C385.083 861.166 423.498 837.721 456 843.464C489.231 849.336 509.91 881.493 510 914L576 914L576 792L511 792L511 819C469.03 767.462 380.17 772.081 338.3 821C309.508 854.64 305.344 910.083 322.427 950C344.185 1000.84 407.373 1007.08 453 1024.81C476.335 1033.88 504.802 1050.14 506.816 1078C510.215 1125.03 454.872 1142.5 418 1128.77C385.086 1116.52 373.893 1082.49 378 1050M1422 1184L1422 1124L1333 1129C1352.72 1114.66 1369.88 1100.3 1382.55 1079C1426.03 1005.91 1414.05 893.392 1353.83 833.17C1305.83 785.167 1232.27 773.919 1168 788.651C1153.82 791.901 1139.75 797.137 1127 804.143C1055.17 843.621 1031.59 923.958 1034.96 1001C1037.52 1059.46 1054.92 1116.51 1102 1154.74C1137.61 1183.66 1187.77 1195.01 1233 1191.91C1253.14 1190.53 1272.98 1185.49 1293 1184.09C1335.55 1181.11 1379.34 1184 1422 1184M80 792L80 848L126 848L126 1124L80 1124L80 1184L250 1184L250 1124L203 1124L203 848L250 848L250 792L80 792M649 792L649 926L713 926L713 848L771 848L771 1124L720 1124L720 1184L898 1184L898 1124L847 1124L847 848L904 848L904 926L969 926L969 792L649 792M1473 792L1473 848L1519 848L1519 1124L1473 1124L1473 1184L1644 1184C1680.86 1184 1722.16 1184.69 1754 1162.97C1819.43 1118.34 1803.49 984.147 1716 977C1733.95 966.637 1751.72 965.019 1765.48 947C1776.52 932.533 1779.87 914.672 1781.09 897C1783.76 858.234 1773.21 818.489 1734 802.604C1701.62 789.486 1665.19 792 1631 792L1473 792M1830 792.439C1786.61 799.201 1795.4 870.286 1840 863.699C1881.35 857.592 1872.3 785.847 1830 792.439z"/>
<path style="fill:#ffffff; stroke:none;" d="M1832 800.479C1798.83 804.354 1803.37 859.854 1837 855.816C1869.38 851.929 1864.92 796.633 1832 800.479z"/>
<path style="fill:#095fa5; stroke:none;" d="M1819 809L1819 848L1827 848L1827 832C1838.66 835.976 1836.11 847.998 1850 848L1841 830C1848.98 827.137 1850.56 815.62 1842.95 810.938C1836.67 807.079 1826.07 809 1819 809z"/>
<path style="fill:#ffffff; stroke:none;" d="M1827 816L1827 825C1840.78 824.999 1840.77 816.038 1827 816M1216 841.424C1200.93 843.402 1186.69 844.934 1173 852.309C1112.29 885.027 1107.81 973.11 1117.92 1033C1127.77 1091.35 1169.83 1139.27 1233 1131.71C1330.94 1120 1343.6 990.85 1318.33 915C1304.01 872.011 1264.4 835.073 1216 841.424M1597 848L1597 954C1622.42 954 1658.41 960.478 1681 946.532C1709.54 928.91 1712.11 873.112 1682 855.681C1658.28 841.947 1623.34 848 1597 848M1597 1009L1597 1124C1627.16 1124 1666.38 1130.7 1693 1113.45C1721.51 1094.98 1722.89 1036.2 1693 1018.48C1666.53 1002.78 1626.44 1009 1597 1009M1331 1129L1332 1130L1331 1129z"/>
<path style="fill:#d12b25; stroke:none;" d="M523 1308C522.314 1323.98 518.368 1340.14 516.282 1356C512.355 1385.86 509.147 1415.98 507.09 1446C501.452 1528.25 503.153 1609.85 508.91 1692C511.112 1723.42 515.201 1754.92 520.414 1786C521.722 1793.8 521.878 1812.85 528 1818C525.431 1804.16 527 1789.05 527 1775C527 1739.54 530.061 1704.24 533.834 1669C546.995 1546.07 577.518 1423.31 622 1308L523 1308z"/>
<path style="fill:#095fa5; stroke:none;" d="M808 1414L783 1414C783 1422.28 784.246 1434.03 778.57 1440.89C764.878 1457.45 755.27 1429.42 755.015 1419C754.543 1399.73 750.076 1371.05 757.483 1353C760.803 1344.91 770.657 1338.96 777.442 1347.11C782.005 1352.59 782.858 1361.14 783 1368L808 1368C807.016 1355.53 806.468 1340.95 797.787 1331.02C784.484 1315.78 750.859 1317.53 739.221 1334.01C723.459 1356.33 728.903 1398.05 730.039 1424C730.546 1435.57 733.068 1449.21 741.185 1457.96C753.076 1470.76 781.812 1472.33 794.91 1460.67C807.789 1449.21 808 1429.89 808 1414M1110 1324L1110 1347L1133 1347L1133 1324L1110 1324M1180 1359L1172 1359L1172 1378L1180 1378L1180 1465L1204 1465L1204 1378L1213 1378L1213 1359L1204 1359C1204 1351.46 1202.76 1342.68 1213 1345L1213 1324C1205.34 1324 1194.62 1323.19 1188.02 1327.7C1178.53 1334.18 1180 1348.94 1180 1359M1252 1324L1252 1347L1275 1347L1275 1324L1252 1324M1470 1324L1470 1366L1469 1366C1460.83 1348.65 1435.73 1355.14 1430.36 1371C1425.03 1386.77 1428 1406.54 1428 1423C1428 1433.38 1427.05 1444.17 1431.09 1454C1437.61 1469.84 1460.59 1473.06 1469 1457L1470 1457L1470 1465L1493 1465L1493 1324L1470 1324M1596 1324L1596 1346L1624 1346L1624 1465L1648 1465L1648 1346L1676 1346L1676 1324L1596 1324M1038 1330L1038 1359L1029 1359L1029 1377L1038 1377L1038 1437C1038 1444.93 1036.37 1455.6 1043.21 1461.36C1051.02 1467.94 1061.86 1465.03 1071 1465L1071 1445L1062 1444L1061 1377L1071 1377L1071 1359L1061 1359L1061 1330L1038 1330M1907 1330L1907 1359L1898 1359L1898 1377L1907 1377L1907 1437C1907 1444.87 1905.7 1455.46 1912.33 1461.21C1920.13 1467.98 1930.78 1465.08 1940 1465L1940 1445C1929.57 1444.43 1931 1436.25 1931 1428L1931 1377L1940 1377L1940 1359L1931 1359L1931 1330L1907 1330M915 1428L891 1428C890.999 1436.45 883.881 1457.77 873.728 1442.96C869.033 1436.11 871 1424.86 871 1417L915 1417C915 1401.02 918.715 1375.48 905.815 1363.33C884.609 1343.35 848.334 1360.27 848.004 1388C847.762 1408.32 842.326 1440.01 856.043 1456.91C866.68 1470.01 894.892 1471.77 906.481 1458.81C913.81 1450.63 914.971 1438.51 915 1428M1386 1428L1363 1428C1362.82 1436.52 1354.96 1457.82 1345.01 1442.9C1340.33 1435.88 1342 1424.98 1342 1417L1386 1417C1386 1400.65 1390.1 1375.69 1376.91 1363.19C1365.37 1352.26 1339.27 1353.09 1328.09 1364.1C1321.34 1370.76 1319.11 1380.82 1319 1390C1318.76 1410.34 1313.71 1441.39 1328.21 1457.98C1338.92 1470.24 1366.57 1471.26 1377.67 1458.91C1385.26 1450.46 1386 1438.77 1386 1428M1765 1428L1742 1428C1741.82 1436.52 1733.99 1457.87 1724.01 1442.9C1719.33 1435.88 1721 1424.98 1721 1417L1765 1417C1765 1400.62 1769.12 1375.67 1755.91 1363.19C1744.41 1352.33 1718.21 1353 1707.1 1364.1C1700.24 1370.97 1698.12 1381.62 1698 1391C1697.76 1411.49 1693.02 1441.14 1707.33 1457.98C1718.19 1470.76 1746.82 1471.05 1757.61 1457.96C1764.5 1449.6 1765 1438.29 1765 1428M1827 1429L1804 1429C1804 1441.69 1804.08 1453.02 1815 1461.61C1829.66 1473.14 1860.58 1469.47 1866.56 1450C1872.73 1429.87 1863.96 1415.97 1848 1404.16C1841.72 1399.51 1830.46 1393.89 1827.94 1386C1825.95 1379.8 1833.38 1374.22 1838.98 1377.03C1844.96 1380.03 1845 1386.24 1845 1392L1869 1392C1868.99 1381.71 1867.42 1369.69 1858.83 1362.79C1844.17 1351.02 1811.4 1354.27 1805.22 1374C1799.31 1392.88 1812.05 1408.48 1826 1419.12C1831.84 1423.57 1841.05 1427.83 1843.85 1435C1846.53 1441.85 1839.75 1452.39 1832.1 1447.25C1826.05 1443.19 1827 1435.32 1827 1429M2043 1428L2020 1428C2019.93 1436.56 2011.93 1457.86 2002.01 1442.9C1997.42 1435.97 1999 1424.88 1999 1417L2043 1417C2043 1400.56 2047.18 1375.73 2033.91 1363.19C2022.41 1352.32 1996.24 1352.97 1985.1 1364.1C1978.24 1370.97 1976.12 1381.62 1976 1391C1975.76 1411.44 1971.06 1441.2 1985.33 1457.98C1996.19 1470.76 2024.82 1471.05 2035.61 1457.96C2042.5 1449.6 2043 1438.29 2043 1428M981 1374L980 1374L980 1359L957 1359L957 1465L981 1465L981 1416C981 1409.17 979.489 1400.16 983.089 1394.02C987.045 1387.27 994.863 1386.06 1002 1386L1002 1357C991.518 1357.48 983.897 1363.97 981 1374M2109 1375L2108 1375L2108 1359L2086 1359L2086 1465L2109 1465L2109 1416C2109 1408.53 2107.67 1399.62 2111.99 1393.04C2116.22 1386.62 2124.02 1386.02 2131 1386L2131 1357C2119.85 1357.24 2111.73 1364.18 2109 1375M1110 1359L1110 1465L1133 1465L1133 1359L1110 1359M1252 1359L1252 1465L1275 1465L1275 1359L1252 1359z"/>
<path style="fill:#ffffff; stroke:none;" d="M1342 1398L1363 1398C1363 1392.98 1363.97 1386.74 1361.99 1382.02C1359.23 1375.4 1349.4 1373.25 1344.73 1379.23C1340.87 1384.16 1342 1392.16 1342 1398M1721 1398L1742 1398C1742 1392.78 1743.16 1385.82 1740.68 1381.04C1737.35 1374.62 1727.02 1373.76 1723.14 1380.11C1720.04 1385.18 1721 1392.33 1721 1398M1999 1398L2020 1398C2020 1392.78 2021.16 1385.82 2018.68 1381.04C2015.35 1374.62 2005.02 1373.76 2001.14 1380.11C1998.04 1385.18 1999 1392.33 1999 1398M871 1398L892 1398C892 1392.34 892.962 1385.17 889.86 1380.11C886.085 1373.94 875.5 1374.76 872.318 1381.02C869.863 1385.84 871 1392.75 871 1398M1456.21 1376.74C1451.17 1379.01 1451.02 1386.33 1451 1391C1450.93 1405.44 1448.93 1421.76 1451.33 1436C1452.24 1441.46 1455.95 1449.85 1462.96 1447.24C1468.39 1445.22 1469.56 1438.05 1469.91 1433C1470.9 1418.84 1472.17 1400.95 1469.53 1387C1468.35 1380.74 1463.65 1373.39 1456.21 1376.74z"/>
</svg>
