<?xml version="1.0" standalone="yes"?>
<svg xmlns="http://www.w3.org/2000/svg" width="630" height="346">
<path style="fill:#fdfefe; stroke:none;" d="M0 0L0 346L630 346L630 0L0 0z"/>
<path style="fill:#f9a732; stroke:none;" d="M346 39L346 40L349 40L349 41L324 44L324 45L327 45L327 46L318 48C317.342 44.1347 307.962 48.349 305 49L305 50L317 48L317 49L315 51L309 50L310 53L313 51L312 54L318 50L318 84L312 85L311 54L310 54L311 85L303 85L303 86C348.713 85.995 393.398 76.132 439 75.0146C501.494 73.4833 563.007 87.6281 621 110L621 75C621 71.2805 622.238 64.706 619.972 61.5131C617.208 57.6168 606.471 55.7899 602 54.4136C586.18 49.543 570.264 44.4386 554 41.1998C504.741 31.3905 455.149 27.6552 405 31.0895C385.143 32.4494 365.712 36.4958 346 39z"/>
<path style="fill:#ee7931; stroke:none;" d="M376 35L377 36L376 35M352.667 39.3333L353.333 39.6667L352.667 39.3333M345 40L345 41L349 41L345 40M334 43L335 44L334 43M328 44L328 45L332 45L328 44M323 45L323 46L327 46L323 45M319 46L318 48L320 48L319 46M146 136C156.978 133.051 167.626 126.002 178 121.287C195.196 113.472 213.765 106.635 232 101.718C236.821 100.418 259.322 97.287 260 93L282 91L282 90L279 90L279 89L298 88L298 87L295 87L295 86L299 88L312 87L312 86L303 86L303 85L311 85L310 54L311 54L312 85L318 84L318 50L312 54L313 51L310 53L309 50L315 51L317 49C307.861 45.7236 291.934 54.6809 283 57.3349C246.803 68.0878 212.106 86.0436 180 105.703C169.332 112.235 146.165 122.074 146 136z"/>
<path style="fill:#f9a732; stroke:none;" d="M292 53L292 54L304 51L292 53M289.667 54.3333L290.333 54.6667L289.667 54.3333M279 57L279 58L288 56L279 57M277.667 58.3333L278.333 58.6667L277.667 58.3333M274.667 59.3333L275.333 59.6667L274.667 59.3333M266 62L266 63L273 61L266 62M264.667 63.3333L265.333 63.6667L264.667 63.3333M261.667 64.3333L262.333 64.6667L261.667 64.3333M254 67L254 68L260 66L254 67M251.667 68.3333L252.333 68.6667L251.667 68.3333M249 69L250 70L249 69M244 71L244 72L248 71L244 71M242.667 72.3333L243.333 72.6667L242.667 72.3333M240 73L241 74L240 73M237.667 74.3333L238.333 74.6667L237.667 74.3333M235.667 75.3333L236.333 75.6667L235.667 75.3333M233.667 76.3333L234.333 76.6667L233.667 76.3333M231 77L232 78L231 77M229 78L230 79L229 78M224 80L224 81L228 80L224 80z"/>
<path style="fill:#ee7931; stroke:none;" d="M370 80L371 81L370 80z"/>
<path style="fill:#f9a732; stroke:none;" d="M223 81L224 82L223 81M221 82L222 83L221 82M219 83L220 84L219 83M214 85L214 86L218 85L214 85z"/>
<path style="fill:#ee7931; stroke:none;" d="M328 84L328 85L333 85L328 84z"/>
<path style="fill:#34afe1; stroke:none;" d="M333.667 84.3333L334.333 84.6667L333.667 84.3333z"/>
<path style="fill:#0e5895; stroke:none;" d="M146 187C162.911 175.814 178.038 161.822 195 150.515C240.619 120.106 297.989 92.1042 353 85C341.562 80.2003 322.088 85.6604 310 86.8302C269.126 90.7857 230.476 101.154 192 115.306C181.056 119.331 170.502 124.322 160 129.363C156.274 131.152 149.483 133.194 147.028 136.648C144.649 139.995 146 147.089 146 151L146 187z"/>
<path style="fill:#34afe1; stroke:none;" d="M146 187L146 137L145 137C145 152.931 141.488 173.736 146 189C172.324 174.99 197.784 161.119 226 151.09C297.474 125.684 381.708 121.523 455 141.745C480.069 148.662 504.476 157.124 528 168.297C541.02 174.482 554.328 184.977 568 189L568 152C568 147.87 569.286 141.018 566.972 137.39C562.71 130.709 547.083 126.271 540 123.14C513.698 111.511 486.898 102.511 459 95.6258C426.638 87.6394 388.419 80.5959 355 84.1736C334.241 86.3961 312.56 94.3479 293 101.308C239.971 120.178 187.605 148.683 146 187z"/>
<path style="fill:#ee7931; stroke:none;" d="M313 85L313 86L325 86L313 85z"/>
<path style="fill:#f9a732; stroke:none;" d="M213 86L214 87L213 86M295 86L295 87L300 87L295 86z"/>
<path style="fill:#34afe1; stroke:none;" d="M312 86L313 87L312 86z"/>
<path style="fill:#f9a732; stroke:none;" d="M211 87L212 88L211 87z"/>
<path style="fill:#34afe1; stroke:none;" d="M301 87L302 88L301 87z"/>
<path style="fill:#f9a732; stroke:none;" d="M209 88L210 89L209 88M287 88L287 89L291 89L287 88z"/>
<path style="fill:#34afe1; stroke:none;" d="M292 88L293 89L292 88z"/>
<path style="fill:#f9a732; stroke:none;" d="M207.667 89.3333L208.333 89.6667L207.667 89.3333M279 89L279 90L283 90L279 89M205.667 90.3333L206.333 90.6667L205.667 90.3333M273 90L273 91L276 91L273 90z"/>
<path style="fill:#34afe1; stroke:none;" d="M282 90L283 91L282 90z"/>
<path style="fill:#f9a732; stroke:none;" d="M204 91L205 92L204 91z"/>
<path style="fill:#34afe1; stroke:none;" d="M276 91L277 92L276 91z"/>
<path style="fill:#f9a732; stroke:none;" d="M202 92L203 93L202 92M200 93L201 94L200 93M260 93L260 94L263 94L260 93M198.667 94.3333L199.333 94.6667L198.667 94.3333M255.667 94.3333L256.333 94.6667L255.667 94.3333M196.667 95.3333L197.333 95.6667L196.667 95.3333M195 96L196 97L195 96M193 97L194 98L193 97M191 98L192 99L191 98M240 98L241 99L240 98M189.667 99.3333L190.333 99.6667L189.667 99.3333M235 99L236 100L235 99M188 100L189 101L188 100M186 101L187 102L186 101z"/>
<path style="fill:#34afe1; stroke:none;" d="M232 101L233 102L232 101z"/>
<path style="fill:#f9a732; stroke:none;" d="M184 102L185 103L184 102M183 103L184 104L183 103M181.667 104.333L182.333 104.667L181.667 104.333M180 105L181 106L180 105M178 106L179 107L178 106z"/>
<path style="fill:#34afe1; stroke:none;" d="M216 106L217 107L216 106z"/>
<path style="fill:#f9a732; stroke:none;" d="M176 107L177 108L176 107M175 108L176 109L175 108M173.667 109.333L174.333 109.667L173.667 109.333M172 110L173 111L172 110M170 111L171 112L170 111M168.667 112.333L169.333 112.667L168.667 112.333M167 113L168 114L167 113M166 114L167 115L166 114M164 115L165 116L164 115M163 116L164 117L163 116M161 117L162 118L161 117M160 118L161 119L160 118M158 119L159 120L158 119M157 120L158 121L157 120z"/>
<path style="fill:#34afe1; stroke:none;" d="M179 120L180 121L179 120z"/>
<path style="fill:#f9a732; stroke:none;" d="M155 121L156 122L155 121M154 122L155 123L154 122M153 123L154 124L153 123M151 124L152 125L151 124M150 125L151 126L150 125M148.667 126.333L149.333 126.667L148.667 126.333M147 127L148 128L147 127M146 128L147 129L146 128z"/>
<path style="fill:#34afe1; stroke:none;" d="M162 128L163 129L162 128z"/>
<path style="fill:#f9a732; stroke:none;" d="M145 129L145 137L146 137L145 129z"/>
<path style="fill:#34afe1; stroke:none;" d="M152 133L153 134L152 133M32 251L29 250L29 306C23.8578 306 11.4702 308.263 7.60339 304.397C2.87614 299.669 6 281.424 6 275L6 191L28 191C24.1129 189.369 8.94463 187.921 6.02778 191.603C2.20453 196.431 5 211.966 5 218L5 278C5 285.222 2.69617 297.193 5.60339 303.852C7.61821 308.467 27.1584 309.231 29.3966 304.682C36.8903 289.453 23.487 266.307 32 251z"/>
<path style="fill:#0e5895; stroke:none;" d="M28 190L6 191L6 274C6 280.786 2.76298 299.012 7.02778 304.397C10.1731 308.368 24.2824 306 29 306L29 250C40.9993 259.768 50.4022 276.444 59.4205 289C62.9559 293.922 66.9628 301.86 72.3002 304.972C78.695 308.701 92.69 306 100 306C93.7127 289.767 75.7071 273.633 64.8002 260C61.6043 256.005 52.3444 247.827 52.4691 242.424C52.5801 237.618 60.7583 231.372 63.7153 228C73.9849 216.287 87.2029 204.489 95 191L72.0394 191.313L59.3997 205L29 241C29 226.689 33.5084 203.127 28 190z"/>
<path style="fill:#34afe1; stroke:none;" d="M29 190L29 241L32 240C24.0125 225.637 35.2289 204.844 29 190M71 190L72 191L71 190M73 190L73 191L97 191L73 190M70 191L71 192L70 191M69 192L70 193L69 192M94 192L95 193L94 192z"/>
<path style="fill:#f9a732; stroke:none;" d="M68 193L69 194L68 193z"/>
<path style="fill:#34afe1; stroke:none;" d="M93 193L94 194L93 193M67 195L68 196L67 195M92 195L93 196L92 195M66 196L67 197L66 196M91 196L92 197L91 196M391 197L391 198L394 197L394 225L395 225L394 196L391 197M65 197L66 198L65 197M90 197L91 198L90 197z"/>
<path style="fill:#f9a732; stroke:none;" d="M390 197L391 198L390 197z"/>
<path style="fill:#0e5895; stroke:none;" d="M373 227L357 227L357 235L373 235C373 251.285 372.327 267.731 373.039 284C373.335 290.749 374.075 299.08 380.044 303.297C390.104 310.404 403.773 307.093 415 307L416 297C409.881 297.773 402.378 299.44 397.394 294.581C392.84 290.141 394 282.76 394 277L394 235L419 235L419 227L394 227L394 197C388.354 198.63 376.029 203.428 373.603 209.185C371.556 214.044 373 221.782 373 227z"/>
<path style="fill:#34afe1; stroke:none;" d="M64 198L65 199L64 198M89 198L90 199L89 198M389 198L390 199L389 198M88 199L89 200L88 199M387 199L388 200L387 199M87 200L88 201L87 200M385 200L386 201L385 200M62 201L63 202L62 201M86 201L87 202L86 201M383.667 201.333L384.333 201.667L383.667 201.333M61 202L62 203L61 202M85 202L86 203L85 202z"/>
<path style="fill:#f9a732; stroke:none;" d="M381 202L382 203L381 202z"/>
<path style="fill:#34afe1; stroke:none;" d="M382 202L383 203L382 202M60 203L61 204L60 203M380 203L381 204L380 203M84 204L85 205L84 204M378 204L379 205L378 204M83 205L84 206L83 205M376 205L377 206L376 205M58 206L59 207L58 206M82 206L83 207L82 206M374.667 206.333L375.333 206.667L374.667 206.333M57 207L58 208L57 207M81 207L82 208L81 207M373 207L374 208L373 207M56 208L57 209L56 208M80 208L81 209L80 208M55 209L56 210L55 209M54 211L55 212L54 211M53 212L54 213L53 212M77 212L78 213L77 212M52 213L53 214L52 213M76 213L77 214L76 213M51 214L52 215L51 214M75 214L76 215L75 214M50 215L51 216L50 215M74 215L75 216L74 215M73 216L74 217L73 216M49 217L50 218L49 217M72 217L73 218L72 217M48 218L49 219L48 218z"/>
<path style="fill:#f9a732; stroke:none;" d="M72 218L73 219L72 218z"/>
<path style="fill:#34afe1; stroke:none;" d="M47 219L48 220L47 219M46 220L47 221L46 220z"/>
<path style="fill:#f9a732; stroke:none;" d="M70 220L71 221L70 220z"/>
<path style="fill:#34afe1; stroke:none;" d="M69 221L70 222L69 221M68 222L69 223L68 222M44 223L45 224L44 223M67 223L68 224L67 223M43 224L44 225L43 224M66 224L67 225L66 224M42 225L43 226L42 225M65 225L66 226L65 225z"/>
<path style="fill:#f9a732; stroke:none;" d="M298 225L299 226L298 225z"/>
<path style="fill:#34afe1; stroke:none;" d="M299 225L299 226L321 226L299 225z"/>
<path style="fill:#f9a732; stroke:none;" d="M321 225L322 226L321 225M453 225L454 226L453 225z"/>
<path style="fill:#34afe1; stroke:none;" d="M454 225L454 226L474 226L454 225z"/>
<path style="fill:#f9a732; stroke:none;" d="M474 225L475 226L474 225M563 225L564 226L563 225z"/>
<path style="fill:#34afe1; stroke:none;" d="M564 225L564 226L568 226L568 244L563 244C571.304 247.155 572.005 226.336 564 225z"/>
<path style="fill:#f9a732; stroke:none;" d="M294 226L295 227L294 226z"/>
<path style="fill:#34afe1; stroke:none;" d="M295.667 226.333L296.333 226.667L295.667 226.333z"/>
<path style="fill:#0e5895; stroke:none;" d="M275 249L297 249C297.798 239.229 306.648 223.77 317.606 234.533C322.66 239.498 323.485 252.375 321.682 258.941C320.176 264.425 310.578 263.499 306 263.925C295.108 264.939 280.839 268.024 274.613 278.039C265.717 292.353 278.641 306.242 293 307.812C304.801 309.102 314.24 301.755 322 294C322 308.513 329.572 306 342 306L342 257C342 249.148 342.877 240.559 337.467 234.104C331.087 226.492 321.128 226 312 226C295.127 226 276.684 228.413 275 249z"/>
<path style="fill:#34afe1; stroke:none;" d="M323.667 226.333L324.333 226.667L323.667 226.333M372 226L373 227L372 226M394 226L395 227L394 226M450.667 226.333L451.333 226.667L450.667 226.333z"/>
<path style="fill:#0e5895; stroke:none;" d="M497 303L497 296C468.927 303.892 446.612 286.629 446 257L499 257C498.915 226.089 458.303 214.806 436.043 233.39C424.134 243.332 424.456 263.075 426.924 277C428.464 285.694 433.114 293.106 440 298.621C446.919 304.163 455.414 306.223 464 307.561C475.309 309.324 486.136 305.491 497 303z"/>
<path style="fill:#34afe1; stroke:none;" d="M476 226L477 227L476 226z"/>
<path style="fill:#f9a732; stroke:none;" d="M477 226L478 227L477 226M560 226L561 227L560 226z"/>
<path style="fill:#34afe1; stroke:none;" d="M561 226L562 227L561 226z"/>
<path style="fill:#0e5895; stroke:none;" d="M537 247L538 227L517 227C517 250.89 513.142 278.424 517.148 301.941C518.072 307.364 533.92 308.251 536.972 304.397C539.544 301.15 538 292.929 538 289C538 272.4 534.613 253.02 554 246.244C558.377 244.714 563.395 244.363 568 244L568 226C550.968 226.363 549.315 240.245 537 247z"/>
<path style="fill:#34afe1; stroke:none;" d="M64 227L65 228L64 227M145 227L146 231L147 231L145 227z"/>
<path style="fill:#0e5895; stroke:none;" d="M146 227C149.342 244.224 155.261 261.153 160.09 278C162.239 285.496 163.017 297.225 167.314 303.682C169.687 307.248 181.259 307.183 184.581 304.972C187.962 302.722 188.501 296.556 189.81 293C193.736 282.334 195.688 263.905 204 256C205.113 266.876 211.316 278.765 215.192 289C216.967 293.687 218.095 299.662 221.214 303.682C223.798 307.013 236.144 307.659 239.015 304.397C243.366 299.454 243.269 289.133 244.92 283C249.921 264.423 253.793 245.522 259 227L242 227L229 285C219.672 268.593 213.217 245.395 209 227L198 227L181 285C172.75 277.013 170.923 254.149 168.424 243C167.556 239.131 166.738 230.558 163.411 228.028C159.735 225.232 150.449 227 146 227z"/>
<path style="fill:#34afe1; stroke:none;" d="M164 227L165 228L164 227z"/>
<path style="fill:#f9a732; stroke:none;" d="M197 227L198 228L197 227z"/>
<path style="fill:#34afe1; stroke:none;" d="M241 227L241 230L242 230L241 227M291 227L292 228L291 227M327 227L328 228L327 227M356 227L356 235L357 235L356 227M446 227L447 228L446 227M480 227L481 228L480 227M558 227L559 228L558 227M63 228L64 229L63 228M197.333 228.667L197.667 229.333L197.333 228.667M209.333 228.667L209.667 229.333L209.333 228.667M258.333 228.667L258.667 229.333L258.333 228.667M288 228L289 229L288 228M330 228L331 229L330 228M443 228L444 229L443 228M483 228L484 229L483 228M555 228L556 229L555 228M39 229L40 230L39 229M62 229L63 230L62 229M165 229L165 233L166 233L165 229M286.667 229.333L287.333 229.667L286.667 229.333M331.667 229.333L332.333 229.667L331.667 229.333M441.667 229.333L442.333 229.667L441.667 229.333M484.667 229.333L485.333 229.667L484.667 229.333M554 229L555 230L554 229M38 230L39 231L38 230M61 230L62 231L61 230M196 230L196 233L197 233L196 230z"/>
<path style="fill:#f9a732; stroke:none;" d="M258 230L259 231L258 230M284 230L285 231L284 230z"/>
<path style="fill:#34afe1; stroke:none;" d="M285 230L286 231L285 230M333 230L334 231L333 230z"/>
<path style="fill:#f9a732; stroke:none;" d="M439 230L440 231L439 230z"/>
<path style="fill:#34afe1; stroke:none;" d="M440 230L441 231L440 230M486 230L487 231L486 230z"/>
<path style="fill:#f9a732; stroke:none;" d="M487 230L488 231L487 230z"/>
<path style="fill:#34afe1; stroke:none;" d="M552 230L553 231L552 230M37 231L38 232L37 231M60 231L61 232L60 231z"/>
<path style="fill:#f9a732; stroke:none;" d="M146 231L147 232L146 231z"/>
<path style="fill:#34afe1; stroke:none;" d="M283 231L284 232L283 231M306 231L306 232L314 232L306 231M335 231L336 232L335 231M438 231L439 232L438 231M457 232L457 233L469 233L457 232M488 231L489 232L488 231M551 231L552 232L551 231M59 232L60 233L59 232M210 232L211 233L210 232z"/>
<path style="fill:#f9a732; stroke:none;" d="M240 232L241 233L240 232z"/>
<path style="fill:#34afe1; stroke:none;" d="M257.333 232.667L257.667 233.333L257.333 232.667M282 232L283 233L282 232M304.667 232.333L305.333 232.667L304.667 232.333M314.667 232.333L315.333 232.667L314.667 232.333M336 232L337 233L336 232z"/>
<path style="fill:#fdfefe; stroke:none;" d="M447 250L479 249C477.75 243.941 477.168 238.984 472.895 235.419C461.02 225.512 447.584 237.246 447 250z"/>
<path style="fill:#34afe1; stroke:none;" d="M58 233L59 234L58 233M166 233L166 236L167 236L166 233M240.333 233.667L240.667 234.333L240.333 233.667M316 233L317 234L316 233M337 233L338 234L337 233z"/>
<path style="fill:#f9a732; stroke:none;" d="M435 233L436 234L435 233z"/>
<path style="fill:#34afe1; stroke:none;" d="M455 233L456 234L455 233M470 233L471 234L470 233M35 234L36 235L35 234M57 234L58 235L57 234M147 234L148 235L147 234M195 234L196 235L195 234M280 234L281 235L280 234M301 234L302 235L301 234M318.333 234.667L318.667 235.333L318.333 234.667z"/>
<path style="fill:#f9a732; stroke:none;" d="M338 234L339 235L338 234z"/>
<path style="fill:#34afe1; stroke:none;" d="M434 234L435 235L434 234M453 234L454 235L453 234M472 234L473 235L472 234M34 235L35 236L34 235z"/>
<path style="fill:#f9a732; stroke:none;" d="M57 235L58 236L57 235z"/>
<path style="fill:#34afe1; stroke:none;" d="M211.333 235.667L211.667 236.333L211.333 235.667M279 235L280 236L279 235M300 235L301 236L300 235M338 235L339 236L338 235z"/>
<path style="fill:#f9a732; stroke:none;" d="M357 235L357 236L370 236L357 235M371 235L372 236L371 235z"/>
<path style="fill:#34afe1; stroke:none;" d="M372 235L373 236L372 235M394 235L395 236L394 235z"/>
<path style="fill:#f9a732; stroke:none;" d="M396 235L396 236L418 236L396 235M433 235L434 236L433 235z"/>
<path style="fill:#34afe1; stroke:none;" d="M452 235L453 236L452 235M473 235L474 236L473 235M492 235L493 236L492 235M547 235L548 236L547 235M33 236L34 237L33 236M56 236L57 237L56 236z"/>
<path style="fill:#f9a732; stroke:none;" d="M239.333 236.667L239.667 237.333L239.333 236.667z"/>
<path style="fill:#34afe1; stroke:none;" d="M278 236L279 237L278 236z"/>
<path style="fill:#f9a732; stroke:none;" d="M300 236L301 237L300 236z"/>
<path style="fill:#34afe1; stroke:none;" d="M319 236L320 237L319 236M339 236L340 237L339 236M451 236L452 237L451 236M474 236L475 237L474 236M546 236L547 237L546 236M55 237L56 238L55 237M148.333 237.667L148.667 238.333L148.333 237.667M167.333 237.667L167.667 238.333L167.333 237.667M194.333 237.667L194.667 238.333L194.333 237.667M212 237L212 240L213 240L212 237M256.333 237.667L256.667 238.333L256.333 237.667M299 237L300 238L299 237M394 237L394 291L395 291L395 255L394 237M450.333 237.667L450.667 238.333L450.333 237.667M475 237L476 238L475 237M494 237L495 238L494 237M545 237L546 238L545 237M32 238L33 239L32 238M54 238L55 239L54 238M239.333 238.667L239.667 239.333L239.333 238.667M277 238L278 239L277 238M320.333 238.667L320.667 239.333L320.333 238.667M340 238L341 239L340 238M431 238L432 239L431 238M476.333 238.667L476.667 239.333L476.333 238.667M544 238L545 239L544 238M53 239L54 240L53 239z"/>
<path style="fill:#f9a732; stroke:none;" d="M276 239L277 240L276 239M430 239L431 240L430 239z"/>
<path style="fill:#34afe1; stroke:none;" d="M449 239L450 240L449 239M495 239L496 240L495 239M537.333 239.667L537.667 240.333L537.333 239.667z"/>
<path style="fill:#f9a732; stroke:none;" d="M543 239L544 240L543 239z"/>
<path style="fill:#34afe1; stroke:none;" d="M52 240L53 241L52 240M149 240L149 243L150 243L149 240M213.333 240.667L213.667 241.333L213.333 240.667M238 240L238 245L239 245L238 240M276 240L277 241L276 240M298 240L299 241L298 240M430 240L431 241L430 240z"/>
<path style="fill:#f9a732; stroke:none;" d="M496 240L497 241L496 240z"/>
<path style="fill:#34afe1; stroke:none;" d="M193.333 241.667L193.667 242.333L193.333 241.667M255.333 241.667L255.667 242.333L255.333 241.667M275 241L275 245L276 245L275 241M341.333 241.667L341.667 242.333L341.333 241.667M429.333 241.667L429.667 242.333L429.333 241.667M448 241L449 242L448 241M477 241L478 242L477 241M496 241L497 242L496 241M542 241L543 242L542 241M51 242L52 243L51 242M168.333 242.667L168.667 243.333L168.333 242.667M497 242L497 245L498 245L497 242M541.333 242.667L541.667 243.333L541.333 242.667M150 243L150 246L151 246L150 243z"/>
<path style="fill:#f9a732; stroke:none;" d="M192 243L193 244L192 243z"/>
<path style="fill:#34afe1; stroke:none;" d="M214.333 243.667L214.667 244.333L214.333 243.667M254 243L254 248L255 248L254 243M321 243L321 262L322 262L321 243M428 243L429 244L428 243M447.333 243.667L447.667 244.333L447.333 243.667M52 244L53 245L52 244M192.333 244.667L192.667 245.333L192.333 244.667M297 244L297 249L298 249L297 244z"/>
<path style="fill:#f9a732; stroke:none;" d="M342 244L342 247L343 247L342 244z"/>
<path style="fill:#34afe1; stroke:none;" d="M478 244L478 248L479 248L478 244M540 244L541 245L540 244M53 245L54 246L53 245M237.333 245.667L237.667 246.333L237.333 245.667M537 245L540 247L537 245M555 245L555 246L561 246L555 245z"/>
<path style="fill:#f9a732; stroke:none;" d="M561 245L562 246L561 245z"/>
<path style="fill:#34afe1; stroke:none;" d="M54 246L55 247L54 246z"/>
<path style="fill:#f9a732; stroke:none;" d="M150 246L151 247L150 246z"/>
<path style="fill:#34afe1; stroke:none;" d="M169.333 246.667L169.667 247.333L169.333 246.667M191 246L191 250L192 250L191 246M274 246L274 249L275 249L274 246M427 246L428 247L427 246M446 246L446 250L447 250L446 246M498 246L498 249L499 249L498 246M553.667 246.333L554.333 246.667L553.667 246.333M151.333 247.667L151.667 248.333L151.333 247.667M215 247L216 248L215 247M342 247L342 306L343 306L343 266L342 247M550 247L551 248L550 247M55 248L56 249L55 248M253.333 248.667L253.667 249.333L253.333 248.667M548 248L549 249L548 248M56 249L57 250L56 249M170 249L170 253L171 253L170 249z"/>
<path style="fill:#f9a732; stroke:none;" d="M216 249L217 250L216 249z"/>
<path style="fill:#34afe1; stroke:none;" d="M275 249L275 250L297 250L275 249z"/>
<path style="fill:#f9a732; stroke:none;" d="M426 249L427 250L426 249z"/>
<path style="fill:#34afe1; stroke:none;" d="M478 249L479 250L478 249M546 249L547 250L546 249M57 250L58 251L57 250M190.333 250.667L190.667 251.333L190.333 250.667M216.333 250.667L216.667 251.333L216.333 250.667M236.333 250.667L236.667 251.333L236.333 250.667z"/>
<path style="fill:#f9a732; stroke:none;" d="M253 250L254 251L253 250z"/>
<path style="fill:#34afe1; stroke:none;" d="M426.333 250.667L426.667 251.333L426.333 250.667M545 250L546 251L545 250M58.3333 251.667L58.6667 252.333L58.3333 251.667M544 251L545 252L544 251M152 252L153 253L152 252M217 252L217 255L218 255L217 252M543 252L544 253L543 252M59 253L60 254L59 253M171.333 253.667L171.667 254.333L171.333 253.667M252 253L253 254L252 253M425 253L425 273L426 273L425 253M542 253L543 254L542 253M33 254L34 255L33 254M60 254L61 255L60 254M189 254L190 255L189 254z"/>
<path style="fill:#f9a732; stroke:none;" d="M252 254L253 255L252 254z"/>
<path style="fill:#34afe1; stroke:none;" d="M541 254L542 255L541 254M34 255L35 256L34 255z"/>
<path style="fill:#f9a732; stroke:none;" d="M61 255L62 256L61 255z"/>
<path style="fill:#34afe1; stroke:none;" d="M153.333 255.667L153.667 256.333L153.333 255.667M218 255L219 256L218 255M235.333 255.667L235.667 256.333L235.333 255.667z"/>
<path style="fill:#f9a732; stroke:none;" d="M62 256L63 257L62 256z"/>
<path style="fill:#34afe1; stroke:none;" d="M201 259L204 256L201 259M540.333 256.667L540.667 257.333L540.333 256.667M62 257L63 258L62 257M172.333 257.667L172.667 258.333L172.333 257.667z"/>
<path style="fill:#f9a732; stroke:none;" d="M188 257L189 258L188 257z"/>
<path style="fill:#34afe1; stroke:none;" d="M251.333 257.667L251.667 258.333L251.333 257.667M446 257L446 264L447 264L446 257M36 258L37 259L36 258M63 258L64 259L63 258M154 258L154 261L155 261L154 258M188 258L189 259L188 258M219.333 258.667L219.667 259.333L219.333 258.667z"/>
<path style="fill:#f9a732; stroke:none;" d="M234 258L235 259L234 258z"/>
<path style="fill:#34afe1; stroke:none;" d="M539 258L539 261L540 261L539 258M37 259L38 260L37 259M64 259L65 260L64 259M234 259L234 262L235 262L234 259M38.3333 260.667L38.6667 261.333L38.3333 260.667M65 260L66 261L65 260M187 260L187 263L188 263L187 260M204 260L205 261L204 260M155.333 261.667L155.667 262.333L155.333 261.667M200 261L201 262L200 261z"/>
<path style="fill:#f9a732; stroke:none;" d="M220 261L221 262L220 261z"/>
<path style="fill:#34afe1; stroke:none;" d="M250 261L250 264L251 264L250 261M538 261L538 264L539 264L538 261M39 262L40 263L39 262M66 262L67 263L66 262M173.333 262.667L173.667 263.333L173.333 262.667M205.333 262.667L205.667 263.333L205.333 262.667M220 262L221 263L220 262M233 262L233 267L234 267L233 262M310 262L310 263L321 263L310 262M40 263L41 264L40 263M67 263L68 264L67 263z"/>
<path style="fill:#f9a732; stroke:none;" d="M155 263L156 264L155 263z"/>
<path style="fill:#34afe1; stroke:none;" d="M186.333 263.667L186.667 264.333L186.333 263.667z"/>
<path style="fill:#f9a732; stroke:none;" d="M221 263L222 264L221 263M304 263L305 264L304 263z"/>
<path style="fill:#34afe1; stroke:none;" d="M305 263L305 264L310 264L305 263M68 264L69 265L68 264M199.333 264.667L199.667 265.333L199.333 264.667M206.333 264.667L206.667 265.333L206.333 264.667M221.333 264.667L221.667 265.333L221.333 264.667M249 264L249 267L250 267L249 264z"/>
<path style="fill:#f9a732; stroke:none;" d="M298 264L299 265L298 264z"/>
<path style="fill:#34afe1; stroke:none;" d="M299.667 264.333L300.333 264.667L299.667 264.333z"/>
<path style="fill:#f9a732; stroke:none;" d="M538 264L538 267L539 267L538 264z"/>
<path style="fill:#34afe1; stroke:none;" d="M41 265L42 266L41 265M69 265L70 266L69 265z"/>
<path style="fill:#f9a732; stroke:none;" d="M174 265L175 266L174 265z"/>
<path style="fill:#34afe1; stroke:none;" d="M294.667 265.333L295.333 265.667L294.667 265.333M42 266L43 267L42 266M156 266L157 267L156 266M174.333 266.667L174.667 267.333L174.333 266.667M198 266L198 269L199 269L198 266z"/>
<path style="fill:#f9a732; stroke:none;" d="M206 266L207 267L206 266z"/>
<path style="fill:#34afe1; stroke:none;" d="M222 266L222 269L223 269L222 266M290 266L290 267L293 267L290 266M447 266L447 269L448 269L447 266M43 267L44 268L43 267M70 267L71 268L70 267M185 267L186 268L185 267M207.333 267.667L207.667 268.333L207.333 267.667M232 267L232 270L233 270L232 267z"/>
<path style="fill:#f9a732; stroke:none;" d="M249 267L250 268L249 267M287 267L288 268L287 267z"/>
<path style="fill:#34afe1; stroke:none;" d="M288.667 267.333L289.333 267.667L288.667 267.333M44 268L45 269L44 268M71 268L72 269L71 268M175 268L175 273L176 273L175 268M248.333 268.667L248.667 269.333L248.333 268.667M286 268L287 269L286 268M312 269L312 270L321 269L321 280L322 280L321 268L312 269M72 269L73 270L72 269M197.333 269.667L197.667 270.333L197.333 269.667M284 269L285 270L284 269z"/>
<path style="fill:#fdfefe; stroke:none;" d="M321 269C315.643 269.995 310.115 270.134 305 272.174C282.04 281.334 301.857 309.168 316.468 290.96C318.116 288.905 319.438 286.527 320.2 284C321.625 279.275 321 273.88 321 269z"/>
<path style="fill:#34afe1; stroke:none;" d="M45 270L46 271L45 270M73 270L74 271L73 270M157 270L158 271L157 270z"/>
<path style="fill:#f9a732; stroke:none;" d="M184 270L185 271L184 270z"/>
<path style="fill:#34afe1; stroke:none;" d="M223 270L224 271L223 270z"/>
<path style="fill:#f9a732; stroke:none;" d="M248 270L249 271L248 270z"/>
<path style="fill:#34afe1; stroke:none;" d="M282 270L283 271L282 270M309.667 270.333L310.333 270.667L309.667 270.333M46 271L47 272L46 271M184 271L185 272L184 271M208 271L209 272L208 271M280 271L281 272L280 271M306 271L307 272L306 271M448.333 271.667L448.667 272.333L448.333 271.667M47 272L48 273L47 272M74 272L75 273L74 272M231.333 272.667L231.667 273.333L231.333 272.667M279 272L280 273L279 272M303 272L304 273L303 272z"/>
<path style="fill:#f9a732; stroke:none;" d="M47 273L48 274L47 273z"/>
<path style="fill:#34afe1; stroke:none;" d="M75 273L76 274L75 273M158.333 273.667L158.667 274.333L158.333 273.667M176.333 273.667L176.667 274.333L176.333 273.667z"/>
<path style="fill:#f9a732; stroke:none;" d="M183 273L184 274L183 273z"/>
<path style="fill:#34afe1; stroke:none;" d="M196 273L197 274L196 273M209.333 273.667L209.667 274.333L209.333 273.667M224.333 273.667L224.667 274.333L224.333 273.667M247.333 273.667L247.667 274.333L247.333 273.667M278 273L279 274L278 273M301 273L302 274L301 273z"/>
<path style="fill:#f9a732; stroke:none;" d="M302 273L303 274L302 273M425 273L426 274L425 273z"/>
<path style="fill:#34afe1; stroke:none;" d="M48 274L49 275L48 274M76 274L77 275L76 274M183.333 274.667L183.667 275.333L183.333 274.667M299 274L300 275L299 274M426 274L426 277L427 277L426 274M449.333 274.667L449.667 275.333L449.333 274.667M49 275L50 276L49 275M77.3333 275.667L77.6667 276.333L77.3333 275.667M159 275L159 279L160 279L159 275M210 275L210 278L211 278L210 275M276 275L277 276L276 275M298 275L299 276L298 275M182 276L182 279L183 279L182 276M195 276L196 277L195 276M225.333 276.667L225.667 277.333L225.333 276.667M275 276L276 277L275 276M297 276L298 277L297 276M450.333 276.667L450.667 277.333L450.333 276.667z"/>
<path style="fill:#f9a732; stroke:none;" d="M50 277L51 278L50 277z"/>
<path style="fill:#34afe1; stroke:none;" d="M78 277L79 278L78 277z"/>
<path style="fill:#f9a732; stroke:none;" d="M177 277L178 278L177 277z"/>
<path style="fill:#34afe1; stroke:none;" d="M230 277L230 280L231 280L230 277M274 277L275 278L274 277M296 277L297 278L296 277M51 278L52 279L51 278M79 278L80 279L79 278M177 278L178 279L177 278M194 278L194 281L195 281L194 278M211 278L212 279L211 278M226 278L226 281L227 281L226 278M246.333 278.667L246.667 279.333L246.333 278.667M295 278L296 279L295 278M451.333 278.667L451.667 279.333L451.333 278.667M52 279L53 280L52 279M80 279L81 280L80 279M160.333 279.667L160.667 280.333L160.333 279.667z"/>
<path style="fill:#f9a732; stroke:none;" d="M211 279L212 280L211 279z"/>
<path style="fill:#34afe1; stroke:none;" d="M273 279L274 280L273 279z"/>
<path style="fill:#f9a732; stroke:none;" d="M81 280L82 281L81 280z"/>
<path style="fill:#34afe1; stroke:none;" d="M181.333 280.667L181.667 281.333L181.333 280.667z"/>
<path style="fill:#f9a732; stroke:none;" d="M229 280L230 281L229 280z"/>
<path style="fill:#34afe1; stroke:none;" d="M245 280L245 284L246 284L245 280z"/>
<path style="fill:#f9a732; stroke:none;" d="M294 280L295 281L294 280z"/>
<path style="fill:#34afe1; stroke:none;" d="M427 280L428 281L427 280z"/>
<path style="fill:#f9a732; stroke:none;" d="M53 281L54 282L53 281z"/>
<path style="fill:#34afe1; stroke:none;" d="M81 281L82 282L81 281z"/>
<path style="fill:#f9a732; stroke:none;" d="M160 281L161 282L160 281z"/>
<path style="fill:#34afe1; stroke:none;" d="M193.333 281.667L193.667 282.333L193.333 281.667M212 281L213 282L212 281M227.333 281.667L227.667 282.333L227.333 281.667M229 281L229 284L230 284L229 281M272.333 281.667L272.667 282.333L272.333 281.667M452 281L453 282L452 281M54 282L55 283L54 282M82 282L83 283L82 282M178 282L181 285L178 282z"/>
<path style="fill:#f9a732; stroke:none;" d="M212 282L213 283L212 282z"/>
<path style="fill:#34afe1; stroke:none;" d="M293 282L293 289L294 289L293 282z"/>
<path style="fill:#f9a732; stroke:none;" d="M453 282L454 283L453 282z"/>
<path style="fill:#34afe1; stroke:none;" d="M55 283L56 284L55 283M83 283L84 284L83 283M161.333 283.667L161.667 284.333L161.333 283.667z"/>
<path style="fill:#f9a732; stroke:none;" d="M180 283L181 284L180 283M193 283L194 284L193 283M271 283L272 284L271 283z"/>
<path style="fill:#34afe1; stroke:none;" d="M320 283L321 284L320 283M428 283L429 284L428 283M56.3333 284.667L56.6667 285.333L56.3333 284.667M84 284L85 285L84 284M192.333 284.667L192.667 285.333L192.333 284.667M213.333 284.667L213.667 285.333L213.333 284.667M228 284L229 285L228 284M244 284L244 287L245 287L244 284M271 284L271 293L272 293L271 284M454 284L455 285L454 284M429.333 285.667L429.667 286.333L429.333 285.667M455 285L456 286L455 285M57 286L58 287L57 286M85 286L86 287L85 286M319 286L320 287L319 286M58 287L59 288L58 287M86 287L87 288L86 287M162.333 287.667L162.667 288.333L162.333 287.667M214.333 287.667L214.667 288.333L214.333 287.667z"/>
<path style="fill:#f9a732; stroke:none;" d="M244 287L245 288L244 287z"/>
<path style="fill:#34afe1; stroke:none;" d="M430 287L431 288L430 287M87 288L88 289L87 288M191 288L192 289L191 288M318 288L319 289L318 288M373 288L373 295L374 295L373 288M457 288L458 289L457 288M59 289L60 290L59 289M88 289L89 290L88 289M215.333 289.667L215.667 290.333L215.333 289.667M243.333 289.667L243.667 290.333L243.333 289.667M317.333 289.667L317.667 290.333L317.333 289.667M431 289L432 290L431 289M458 289L459 290L458 289M60 290L61 291L60 290M163 290L163 293L164 293L163 290M459 290L460 291L459 290M61 291L62 292L61 291M89 291L90 292L89 291M190.333 291.667L190.667 292.333L190.333 291.667z"/>
<path style="fill:#f9a732; stroke:none;" d="M294 291L295 292L294 291z"/>
<path style="fill:#34afe1; stroke:none;" d="M316 291L317 292L316 291M460 291L461 292L460 291M90 292L91 293L90 292M216 292L217 293L216 292z"/>
<path style="fill:#f9a732; stroke:none;" d="M315 292L316 293L315 292z"/>
<path style="fill:#34afe1; stroke:none;" d="M395 292L396 293L395 292M433 292L434 293L433 292z"/>
<path style="fill:#f9a732; stroke:none;" d="M62 293L63 294L62 293z"/>
<path style="fill:#34afe1; stroke:none;" d="M91 293L92 294L91 293M164 293L164 296L165 296L164 293M189 293L189 296L190 296L189 293M272.333 293.667L272.667 294.333L272.333 293.667M295 293L296 294L295 293M314 293L315 294L314 293M434 293L435 294L434 293M463 293L464 294L463 293M63 294L64 295L63 294M92 294L93 295L92 294M242.333 294.667L242.667 295.333L242.333 294.667M296 294L297 295L296 294M313 294L314 295L313 294M321 294L323 306L321 294M396 294L397 295L396 294M435 294L436 295L435 294M464.667 294.333L465.333 294.667L464.667 294.333M217 295L218 296L217 295M297 295L298 296L297 295M311.667 295.333L312.333 295.667L311.667 295.333M374.333 295.667L374.667 296.333L374.333 295.667M397 295L398 296L397 295M436 295L437 296L436 295M466 295L467 296L466 295z"/>
<path style="fill:#f9a732; stroke:none;" d="M496 295L497 296L496 295z"/>
<path style="fill:#34afe1; stroke:none;" d="M93 296L94 297L93 296z"/>
<path style="fill:#f9a732; stroke:none;" d="M164 296L165 297L164 296z"/>
<path style="fill:#34afe1; stroke:none;" d="M188.333 296.667L188.667 297.333L188.333 296.667M273 296L274 297L273 296M298 296L299 297L298 296M310 296L311 297L310 296M319 296L320 297L319 296M399 296L400 297L399 296M437 296L438 297L437 296M468 296L469 297L468 296M494.667 296.333L495.333 296.667L494.667 296.333M497 296L497 303L498 303L497 296M65 297L66 298L65 297M94 297L95 298L94 297M165.333 297.667L165.667 298.333L165.333 297.667M301 297L301 298L308 298L301 297M318 297L319 298L318 297M402 297L402 298L413 298L402 297M438 297L439 298L438 297M471 297L472 298L471 297M490.667 297.333L491.333 297.667L490.667 297.333M66 298L67 299L66 298M95 298L96 299L95 298z"/>
<path style="fill:#f9a732; stroke:none;" d="M188 298L189 299L188 298z"/>
<path style="fill:#34afe1; stroke:none;" d="M218 298L219 299L218 298M241.333 298.667L241.667 299.333L241.333 298.667M274 298L275 299L274 298M317 298L318 299L317 298M375 298L376 299L375 298M415 298L415 307L416 307L415 298M439 298L440 299L439 298M475 298L475 299L487 299L475 298M67 299L68 300L67 299M96 299L97 300L96 299M275 299L276 300L275 299M316 299L317 300L316 299M440 299L441 300L440 299M187 300L188 301L187 300M219.333 300.667L219.667 301.333L219.333 300.667M240 300L240 305L241 305L240 300M276 300L277 301L276 300M315 300L316 301L315 300M376 300L377 301L376 300M442 300L443 301L442 300M68 301L69 302L68 301M277 301L278 302L277 301M314 301L315 302L314 301M377 301L378 302L377 301M443.667 301.333L444.333 301.667L443.667 301.333M69 302L70 303L69 302M98 302L99 303L98 302M166 302L167 303L166 302M220 302L220 305L221 305L220 302M278 302L279 303L278 302M378 302L379 303L378 302M445 302L446 303L445 302M70.3333 303.667L70.6667 304.333L70.3333 303.667M99 303L100 304L99 303M186 303L187 304L186 303M279 303L280 304L279 303M311 303L312 304L311 303M379 303L380 304L379 303M447 303L448 304L447 303M494.667 303.333L495.333 303.667L494.667 303.333M100 304C93.7818 308.711 79.6486 306 72 306L72 307L94 307C96.5497 306.994 101.354 307.593 100 304M281 304L282 305L281 304M309 304L310 305L309 304M381 304L382 305L381 304z"/>
<path style="fill:#f9a732; stroke:none;" d="M449 304L450 305L449 304z"/>
<path style="fill:#34afe1; stroke:none;" d="M450 304L451 305L450 304M491.667 304.333L492.333 304.667L491.667 304.333M71 305L72 306L71 305M167 305L168 306L167 305M185 305L186 306L185 305M221 305L222 306L221 305M239 305L240 306L239 305M283.667 305.333L284.333 305.667L283.667 305.333M306.667 305.333L307.333 305.667L306.667 305.333M383.667 305.333L384.333 305.667L383.667 305.333z"/>
<path style="fill:#f9a732; stroke:none;" d="M452 305L453 306L452 305z"/>
<path style="fill:#34afe1; stroke:none;" d="M453 305L454 306L453 305M487.667 305.333L488.333 305.667L487.667 305.333z"/>
<path style="fill:#f9a732; stroke:none;" d="M489 305L490 306L489 305z"/>
<path style="fill:#34afe1; stroke:none;" d="M517 305C520.613 309.135 531.751 307 537 307L537 306L517 305M537 305L538 306L537 305M168 306L168 307L185 307L168 306M222 306L222 307L239 307L222 306M285 306L285 307L288 307L285 306M303 306L303 307L306 307L303 306M323 306L323 307L342 307L323 306M385 306L385 307L389 307L385 306M455 306L455 307L459 307L455 306M482 306L482 307L487 307L482 306M288 307L288 308L291 308L288 307M299 307L299 308L303 308L299 307M389 307L389 308L394 308L389 307M407 307L407 308L414 308L407 307M460 307L460 308L464 308L460 307M477 307L477 308L482 308L477 307z"/>
</svg>
