<?xml version="1.0" standalone="no"?>
<!DOCTYPE svg PUBLIC "-//W3C//DTD SVG 20010904//EN"
 "http://www.w3.org/TR/2001/REC-SVG-20010904/DTD/svg10.dtd">
<svg version="1.0" xmlns="http://www.w3.org/2000/svg"
 width="200.000000pt" height="200.000000pt" viewBox="0 0 200.000000 200.000000"
 preserveAspectRatio="xMidYMid meet">

<g transform="translate(0.000000,200.000000) scale(0.100000,-0.100000)"
fill="#000000" stroke="none">
<path d="M383 1369 c-23 -11 -63 -44 -90 -72 l-48 -52 384 -3 c212 -1 388 1
392 5 7 9 39 115 39 132 0 8 -94 11 -317 11 -301 0 -320 -1 -360 -21z"/>
<path d="M1166 1373 c-13 -43 -116 -538 -116 -557 0 -72 51 -151 121 -187 35
-18 61 -19 352 -19 l314 0 30 105 c17 57 28 107 25 110 -3 3 -131 5 -284 5
-265 0 -279 1 -298 20 -11 11 -20 25 -20 32 0 9 107 425 126 491 5 16 -5 17
-120 17 -110 0 -125 -2 -130 -17z"/>
<path d="M205 1078 c20 -68 90 -130 167 -148 24 -5 106 -10 184 -10 95 0 144
-4 152 -12 16 -16 15 -63 -1 -77 -9 -7 -105 -12 -283 -13 l-269 -3 -27 -102
-26 -103 317 0 c359 0 377 3 456 72 56 49 95 123 102 193 9 90 -30 166 -108
205 -36 19 -60 20 -354 20 l-316 0 6 -22z"/>
</g>
</svg>
